inDegrees=no
num_controls=7
num_derivatives=13
num_iterations=119
num_multipliers=7
num_parameters=0
num_slacks=7
num_states=26
objective=0.506263
objective_accelerations=0.019641
objective_balance=0.003486
objective_effort=0.036528
objective_height=0.441186
objective_ligament=0.005422
solver_duration=1296.266253
status=Solve_Succeeded
success=true
DataType=double
version=3
OpenSimVersion=4.5
endheader
time	/jointset/ground_pelvis/pelvis_tilt/value	/jointset/ground_pelvis/pelvis_tx/value	/jointset/ground_pelvis/pelvis_ty/value	/jointset/hip_r/hip_flexion_r/value	/jointset/hip_r/hip_adduction_r/value	/jointset/hip_r/hip_rotation_r/value	/jointset/back/lumbar_extension/value	/jointset/patellofemoral_r/patellar_flexion_r/value	/jointset/knee_r/knee_flexion_r/value	/jointset/knee_r/knee_adduction_r/value	/jointset/knee_r/knee_rotation_r/value	/jointset/ankle_r/ankle_angle_r/value	/jointset/subtalar_r/subtalar_angle_r/value	/jointset/ground_pelvis/pelvis_tilt/speed	/jointset/ground_pelvis/pelvis_tx/speed	/jointset/ground_pelvis/pelvis_ty/speed	/jointset/hip_r/hip_flexion_r/speed	/jointset/hip_r/hip_adduction_r/speed	/jointset/hip_r/hip_rotation_r/speed	/jointset/back/lumbar_extension/speed	/jointset/patellofemoral_r/patellar_flexion_r/speed	/jointset/knee_r/knee_flexion_r/speed	/jointset/knee_r/knee_adduction_r/speed	/jointset/knee_r/knee_rotation_r/speed	/jointset/ankle_r/ankle_angle_r/speed	/jointset/subtalar_r/subtalar_angle_r/speed	/forceset/tau_hip_flexion_r	/forceset/tau_hip_adduction_r	/forceset/tau_hip_rotation_r	/forceset/tau_knee_flexion_r	/forceset/tau_ankle_angle_r	/forceset/tau_subtalar_angle_r	/forceset/tau_lumbar_extension	lambda_cid13_p0	lambda_cid14_p0	lambda_cid14_p1	lambda_cid14_p2	lambda_cid14_p3	lambda_cid14_p4	lambda_cid14_p5	/jointset/ground_pelvis/pelvis_tilt/accel	/jointset/ground_pelvis/pelvis_tx/accel	/jointset/ground_pelvis/pelvis_ty/accel	/jointset/hip_r/hip_flexion_r/accel	/jointset/hip_r/hip_adduction_r/accel	/jointset/hip_r/hip_rotation_r/accel	/jointset/back/lumbar_extension/accel	/jointset/patellofemoral_r/patellar_flexion_r/accel	/jointset/knee_r/knee_flexion_r/accel	/jointset/knee_r/knee_adduction_r/accel	/jointset/knee_r/knee_rotation_r/accel	/jointset/ankle_r/ankle_angle_r/accel	/jointset/subtalar_r/subtalar_angle_r/accel	gamma_cid13_p0	gamma_cid14_p0	gamma_cid14_p1	gamma_cid14_p2	gamma_cid14_p3	gamma_cid14_p4	gamma_cid14_p5
1	0.04958162919198817	0.08216389267533812	0.8296294072226771	0.6426743086467102	-0.237282770038618	-0.09683546602155665	-0.4360484385450463	0.9425617034140154	0.9425617034140137	0.008554273508737232	0.1733042409051181	0.4362892728331335	0.1027221770083893	-0.008804756263085391	0.007524215359568201	0.01064419666543723	-0.03004226601290831	0.002575119628758053	-0.01156143725640615	0.02269559697139356	-0.04865283225143516	-0.04865283225143598	-0.0004359914038349134	-0.0004824553151925725	-0.01099504426554479	0.0004152664468004799	-0.03670004373931138	0.005188659056669671	0.01650864122656496	-0.4782585795574039	0.005023098176830582	-0.006416426077414693	0.1378011329927496	-15.97667825719485	-44.89675287868174	-10.38433195763206	1.814628004893704	12.52617252323258	-745.3297730853865	62.53214566792145	-0.02954147968277859	0.04514539634447877	0.7533980127854021	-2.072469146065647	0.10246618645021	-0.4431111571354046	0.9772936965659254	-3.395329808592739	-3.395329808592744	0.4240059087107578	-0.03226216253291152	-1.452123610828325	-0.3769763984466468	8.626160290852385e-10	-2.080743444658225e-09	-9.282844275507196e-09	2.800781232766275e-09	3.651468218815312e-09	-5.699397417341672e-09	-6.941816491447913e-09
1.01	0.04949132602783574	0.08224125801515582	0.8297734384283828	0.6422712740714923	-0.2372520499754848	-0.09697345962430645	-0.4357718120074803	0.9419053436521266	0.9419053436521239	0.008571292052056978	0.1732982989696428	0.4361063332874581	0.1027070730701559	-0.009288907774602577	0.007936116883376426	0.01816457549706115	-0.05053249281157066	0.003570793830349596	-0.01604046667263248	0.03266212196695129	-0.08265946533507884	-0.08265946533508617	0.003846873513786047	-0.0007055343975874485	-0.02563531639352125	-0.003448563338705479	-0.03699694641740002	0.005468170625538887	0.01648252341896324	-0.4773808860224569	0.00359797826221215	-0.006330449577567626	0.1379903920426158	-16.02003521950219	-45.37076980248409	-10.42024000532878	1.809216617527455	13.01052728474721	-745.5119754739575	62.4304596199019	-0.06280658258923583	0.03730278452254172	0.7517354882600865	-2.032476131427106	0.098402704163098	-0.4507749338842251	1.011193614816652	-3.409382181612236	-3.409382181613245	0.4315008988723461	-0.01727114026778328	-1.476346543220339	-0.3929644343443636	1.701671337675276e-09	-1.681001708254135e-09	-1.440386439647502e-08	3.763488540588766e-09	3.067949495826616e-09	-9.874336521764382e-09	-9.409599685077365e-09
1.02	0.0493951904294265	0.08232236042103638	0.8299927489563865	0.6416643018913629	-0.2372113162369038	-0.09715633874122472	-0.4353945478772015	0.940907707134728	0.9409077071347268	0.008631354067671864	0.173290138171508	0.4357757175146215	0.1026529552009193	-0.009971243114237586	0.008271628572144009	0.02570006112504509	-0.07082978699665009	0.004577854717920901	-0.02053854008957888	0.0428231155131447	-0.1169081833532054	-0.1169081833532215	0.008172703054789376	-0.0009262278469834325	-0.04053028969902094	-0.007387519753883486	-0.03729384909543122	0.005747682194404404	0.01645640561138724	-0.4765031924874984	0.002172858347591298	-0.006244473077728564	0.1381796510925319	-16.08603320175955	-45.85448557490627	-10.45238282613696	1.796964566938055	13.50815997378773	-745.8557564755235	62.35477013752443	-0.06917824530628057	0.02986742933627993	0.7564193720574102	-2.033882623349041	0.104743523646176	-0.4469199572794076	1.016187406693083	-3.443746795489324	-3.443746795489777	0.4325988333872217	-0.03178503593314685	-1.503063846333071	-0.3920017243810764	2.193593115643873e-09	-2.263700780491265e-09	-2.492288560978237e-08	7.352121185193585e-09	4.903852788496541e-09	-1.066035654898029e-08	-2.029832974617154e-08
1.03	0.04929102388225477	0.08240651846713457	0.8302874066376247	0.6408555844914798	-0.2371604938730958	-0.09738432198223815	-0.4349143780601189	0.9395665949540369	0.9395665949540409	0.008734880053841262	0.173279856548497	0.4352950574324231	0.1025590876148151	-0.01091912013015854	0.008555395487562886	0.0332254346890415	-0.09085246369013816	0.005584828551566521	-0.02506143623120591	0.05327805316384256	-0.1513323308672971	-0.1513323308673032	0.01254033919608664	-0.001124478253514849	-0.05562659478814287	-0.01139673962022034	-0.03733269381587561	0.005842775347531098	0.01642467743754826	-0.475760878822364	0.001583162337713651	-0.006262812809919201	0.1381672586351799	-16.17479969867854	-46.04845211978868	-10.48435915218016	1.790696219743495	13.72361477778203	-745.8408835338387	62.26163209518535	-0.1161503769717566	0.02694491264270632	0.7496879966311227	-1.977275958107618	0.0984057252619565	-0.4554705794608686	1.070227733438469	-3.444460981184387	-3.444460981182601	0.4400186560160252	-0.01300209556552992	-1.516643498942208	-0.4069976704482269	2.681972714728575e-09	-2.856424758939026e-09	-3.549698846688914e-08	1.09675489862962e-08	6.764444060918099e-09	-1.14117957692859e-08	-3.127298783652561e-08
